<?xml version="1.0"?>
<svg width="55" height="55" viewBox="0 0 55 55" xmlns="http://www.w3.org/2000/svg">
    <g transform="translate(1.659 1.659)" fill="none" fill-rule="evenodd">
        <rect fill="#ff216a" x="20.979" y="20.341" width="8.984" height="11" rx="2"></rect>
        <path d="M50.386 52.024H1.64c-.906 0-1.64-.738-1.64-1.648V6.26c0-.91.734-1.65 1.64-1.65h48.746c.905 0 1.638.74 1.638 1.65v44.117c0 .91-.733 1.648-1.638 1.648z" stroke="#444" stroke-width="2" stroke-linejoin="round"></path>
        <path d="M0 17.122h52.024M11.195 9.878V0M40.83 9.878V0" stroke="#444" stroke-width="2" stroke-linecap="round" stroke-linejoin="round"></path>
        <path d="M18.439 25.683a1.976 1.976 0 1 1-3.953-.002 1.976 1.976 0 0 1 3.953.002M27.659 25.683a1.976 1.976 0 1 1-3.953-.002 1.976 1.976 0 0 1 3.953.002M36.878 25.683a1.976 1.976 0 1 1-3.953-.002 1.976 1.976 0 0 1 3.953.002M46.098 25.683a1.976 1.976 0 1 1-3.953-.002 1.976 1.976 0 0 1 3.953.002M9.22 34.902a1.976 1.976 0 1 1-3.952 0 1.976 1.976 0 0 1 3.952 0M18.439 34.902a1.976 1.976 0 1 1-3.953-.001 1.976 1.976 0 0 1 3.953.001M27.659 34.902a1.976 1.976 0 1 1-3.953-.001 1.976 1.976 0 0 1 3.953.001M36.878 34.902a1.976 1.976 0 1 1-3.953-.001 1.976 1.976 0 0 1 3.953.001M46.098 34.902a1.976 1.976 0 1 1-3.953-.001 1.976 1.976 0 0 1 3.953.001M9.22 44.122a1.976 1.976 0 1 1-3.952 0 1.976 1.976 0 0 1 3.952 0M18.439 44.122a1.976 1.976 0 1 1-3.953-.001 1.976 1.976 0 0 1 3.953.001M27.659 44.122a1.976 1.976 0 1 1-3.953-.001 1.976 1.976 0 0 1 3.953.001M36.878 44.122a1.976 1.976 0 1 1-3.953-.001 1.976 1.976 0 0 1 3.953.001" fill="#444"></path>
    </g>
</svg>