<?xml version="1.0"?>
<svg width="55" height="55" viewBox="0 0 55 55" xmlns="http://www.w3.org/2000/svg"><g fill="none" fill-rule="evenodd"><path fill="#ff216a" d="M1 19h52v34H1z"></path><path d="M52.044 53.683H3.3c-.907 0-1.64-.738-1.64-1.648V7.918c0-.91.733-1.65 1.64-1.65h48.745c.905 0 1.639.74 1.639 1.65v44.117c0 .91-.734 1.648-1.639 1.648z" stroke="#444" stroke-width="2" stroke-linejoin="round"></path><path d="M1.659 18.78h52.024M12.854 11.537V1.659M42.488 11.537V1.659" stroke="#444" stroke-width="2" stroke-linecap="round" stroke-linejoin="round"></path><path d="M20.098 27.341a1.976 1.976 0 1 1-3.953-.001 1.976 1.976 0 0 1 3.953.001M29.317 27.341a1.976 1.976 0 1 1-3.953-.001 1.976 1.976 0 0 1 3.953.001M38.537 27.341a1.976 1.976 0 1 1-3.953-.001 1.976 1.976 0 0 1 3.953.001M47.756 27.341a1.976 1.976 0 1 1-3.953-.001 1.976 1.976 0 0 1 3.953.001M10.878 36.561a1.976 1.976 0 1 1-3.951 0 1.976 1.976 0 0 1 3.951 0M20.098 36.561a1.976 1.976 0 1 1-3.953-.001 1.976 1.976 0 0 1 3.953.001M29.317 36.561a1.976 1.976 0 1 1-3.953-.001 1.976 1.976 0 0 1 3.953.001M38.537 36.561a1.976 1.976 0 1 1-3.953-.001 1.976 1.976 0 0 1 3.953.001M47.756 36.561a1.976 1.976 0 1 1-3.953-.001 1.976 1.976 0 0 1 3.953.001M10.878 45.78a1.976 1.976 0 1 1-3.951 0 1.976 1.976 0 0 1 3.951 0M20.098 45.78a1.976 1.976 0 1 1-3.953-.001 1.976 1.976 0 0 1 3.953.001M29.317 45.78a1.976 1.976 0 1 1-3.953-.001 1.976 1.976 0 0 1 3.953.001M38.537 45.78a1.976 1.976 0 1 1-3.953-.001 1.976 1.976 0 0 1 3.953.001" fill="#444"></path></g></svg>