<svg height="512" viewBox="0 0 64 64" width="512" xmlns="http://www.w3.org/2000/svg"><path d="m23.006 12a14.944 14.944 0 0 1 2.963.372 5.572 5.572 0 0 1 -2.518 3.8l1.11 1.664a7.6 7.6 0 0 0 3.315-4.8 3.675 3.675 0 0 1 1.943 1.964h-.819a1 1 0 0 0 -1 1v3h-1a1 1 0 0 0 -1 1v8.532l-5.641 4.7a1 1 0 0 0 -.359.688l-2 25.006a2.778 2.778 0 0 0 .73 2.123 3.091 3.091 0 0 0 2.27.951h20a2.97 2.97 0 0 0 2.171-.931 3.017 3.017 0 0 0 .823-2.217l-1.994-38.903a1 1 0 0 0 -1-.949h-1v-3a1 1 0 0 0 -1-1h-.838a2.682 2.682 0 0 1 2.844-2 1 1 0 0 0 .8-1.6l-3-4a1 1 0 0 0 -.8-.4c-.089 0-8.957-.011-13.8-.98a1 1 0 0 0 -1.166.737l-1 4a1 1 0 0 0 .966 1.243zm18.994 46.953a1 1 0 0 1 -1 1.047h-20a1.09 1.09 0 0 1 -.8-.312.777.777 0 0 1 -.2-.608l1.963-24.58 5.678-4.731a1 1 0 0 0 .359-.769v-3h5v-2h-5v-3h12.05zm-12-39.953v-2h8v2zm-5.251-10.85a98.48 98.48 0 0 0 12.751.85l1.7 2.27a4.713 4.713 0 0 0 -3.093 3.73h-4.19c-.7-3.784-5.353-4.7-7.648-4.928z"/><path d="m35 24h2v2h-2z"/><path d="m17 1.438h2v4.123h-2z" transform="matrix(.243 -.97 .97 .243 10.239 20.114)"/><path d="m14.938 11.5h4.123v2h-4.123z" transform="matrix(.97 -.242 .242 .97 -2.521 4.489)"/><path d="m15 7h4v2h-4z"/><path d="m38.008 29c-2.768 0-3.725.591-4.608 1.306a2.987 2.987 0 0 1 -2.392.694 3.829 3.829 0 0 0 -3.895 2.553c-.467.933-.723 1.447-2.105 1.447a1 1 0 0 0 -.995.905l-2 21a1 1 0 0 0 .995 1.095h16a1 1 0 0 0 1-1.037l-1-27a1 1 0 0 0 -1-.963zm-13.9 27 1.817-19.068a3.8 3.8 0 0 0 2.975-2.485c.467-.933.724-1.447 2.106-1.447a4.892 4.892 0 0 0 3.65-1.139 3.479 3.479 0 0 1 2.387-.831l.927 24.97z"/><path d="m45 21a4 4 0 1 0 4-4 4 4 0 0 0 -4 4zm6 0a2 2 0 1 1 -2-2 2 2 0 0 1 2 2z"/><path d="m18 28a4 4 0 1 0 -4-4 4 4 0 0 0 4 4zm0-6a2 2 0 1 1 -2 2 2 2 0 0 1 2-2z"/><path d="m47 14a3 3 0 1 0 -3-3 3 3 0 0 0 3 3zm0-4a1 1 0 1 1 -1 1 1 1 0 0 1 1-1z"/><path d="m14 36a3 3 0 1 0 -3-3 3 3 0 0 0 3 3zm0-4a1 1 0 1 1 -1 1 1 1 0 0 1 1-1z"/><path d="m31.256 39.332c-.544.606-3.256 3.727-3.256 5.668a4 4 0 0 0 8 0c0-1.941-2.712-5.062-3.256-5.668a1.031 1.031 0 0 0 -1.488 0zm.744 7.668a2 2 0 0 1 -2-2c0-.637.939-2.125 2-3.451 1.062 1.332 2 2.831 2 3.451a2 2 0 0 1 -2 2z"/></svg>