<svg height="496pt" viewBox="0 0 496 496" width="496pt" xmlns="http://www.w3.org/2000/svg"><path d="m64 320h120v16h-120zm0 0"/><path d="m64 192h120v16h-120zm0 0"/><path d="m32 256h120v16h-120zm0 0"/><path d="m480 352h-8v-57.929688c0-17.71875-11.886719-33.527343-28.910156-38.429687l-75.089844-21.65625v-16.367187l7.0625-4.714844c10.691406-7.117188 18.328125-17.558594 22.144531-29.429688 15.167969-2.503906 26.792969-15.609375 26.792969-31.472656v-64c0-48.519531-39.480469-88-88-88s-88 39.480469-88 88v64c0 15.863281 11.625 28.96875 26.792969 31.472656 3.824219 11.871094 11.464843 22.3125 22.144531 29.429688l7.0625 4.714844v16.367187l-75.089844 21.664063c-14.628906 4.214843-25.414062 16.503906-28.175781 31.113281-9.664063-3.105469-16.734375-12.074219-16.734375-22.761719 0-13.230469 10.769531-24 24-24h8v-16h-8.207031c5.078125-6.703125 8.207031-14.960938 8.207031-24 0-22.054688-17.945312-40-40-40h-176v16h8c13.230469 0 24 10.769531 24 24s-10.769531 24-24 24h-8v16h8.207031c-5.078125 6.703125-8.207031 14.960938-8.207031 24s3.128906 17.296875 8.207031 24h-8.207031v16h8c13.230469 0 24 10.769531 24 24s-10.769531 24-24 24h-8v32c0 8.824219 7.175781 16 16 16v96h464v-96c8.824219 0 16-7.175781 16-16v-16c0-8.824219-7.175781-16-16-16zm-80-186.222656v-27.546875c4.761719 2.777343 8 7.882812 8 13.777343 0 5.894532-3.238281 10.992188-8 13.769532zm-136-13.777344c0-5.894531 3.238281-11 8-13.777344v27.546875c-4.761719-2.769531-8-7.875-8-13.769531zm19.160156-48h-11.160156v17.136719c-2.847656.742187-5.519531 1.863281-8 3.3125v-36.449219c0-39.695312 32.296875-72 72-72s72 32.304688 72 72v36.449219c-2.480469-1.449219-5.152344-2.578125-8-3.3125v-17.136719h-11.160156c-17.289063 0-34.023438-5.0625-48.40625-14.65625l-4.433594-2.960938-4.441406 2.960938c-14.382813 9.59375-31.109375 14.65625-48.398438 14.65625zm4.839844 62.3125v-46.425781c16.984375-.789063 33.40625-5.726563 48-14.429688 14.59375 8.703125 31.015625 13.640625 48 14.429688v46.425781c0 13.398438-6.65625 25.839844-17.816406 33.28125l-19.96875 13.308594c-6.078125 4.050781-14.359375 4.050781-20.4375 0l-19.96875-13.308594c-11.152344-7.433594-17.808594-19.882812-17.808594-33.28125zm32 61.65625c4.9375 2.597656 10.375 4.03125 16 4.03125s11.0625-1.433594 16-4.03125v4.03125c0 8.824219-7.175781 16-16 16s-16-7.175781-16-16zm-86.648438 43.046875 75.738282-21.847656c5.6875 8.886719 15.589844 14.832031 26.910156 14.832031s21.222656-5.945312 26.910156-14.832031l75.738282 21.847656c10.214843 2.945313 17.351562 12.425781 17.351562 23.054687v57.929688h-78.527344c3.3125-9.289062 12.113282-16 22.527344-16h40v-16h-16v-32h-16v32h-8c-2.734375 0-5.414062.28125-8 .808594v-48.808594h-24c-13.070312 0-24.695312 6.304688-32 16.023438-7.304688-9.71875-18.929688-16.023438-32-16.023438h-24v48.808594c-2.585938-.527344-5.265625-.808594-8-.808594h-8v-32h-16v32h-16v16h40c10.414062 0 19.214844 6.710938 22.527344 16h-86.734375c5.078125-6.703125 8.207031-14.960938 8.207031-24v-33.929688c0-10.628906 7.136719-20.109374 17.351562-23.054687zm77.839844 80.984375c-1.976562-9.703125-7.566406-18.023438-15.191406-23.792969v-40.207031h8c13.230469 0 24 10.769531 24 24v40zm32.808594-40c0-13.230469 10.769531-24 24-24h8v40.207031c-7.625 5.769531-13.214844 14.097657-15.191406 23.792969h-16.808594zm-304.207031-136h136.207031c13.230469 0 24 10.769531 24 24s-10.769531 24-24 24h-136.207031c5.078125-6.703125 8.207031-14.960938 8.207031-24s-3.128906-17.296875-8.207031-24zm-23.792969 88c0-13.230469 10.769531-24 24-24h136.207031c-5.078125 6.703125-8.207031 14.960938-8.207031 24s3.128906 17.296875 8.207031 24h-136.207031c-13.230469 0-24-10.769531-24-24zm24 40h136c13.230469 0 24 10.769531 24 24s-10.769531 24-24 24h-136.207031c5.078125-6.703125 8.207031-14.960938 8.207031-24s-3.128906-17.296875-8.207031-24zm424 176h-432v-80h32v48h144v-48h80v48h144v-48h32zm-384-80h112v32h-112zm224 0h112v32h-112zm-288-16v-16h464l.007812 16zm0 0"/></svg>